<?xml version="1.0" encoding="utf-8"?><svg xmlns="http://www.w3.org/2000/svg" xmlns:xlink="http://www.w3.org/1999/xlink"><symbol viewBox="0 0 18.7 35.4" id="arrow" xmlns="http://www.w3.org/2000/svg"><path d="M18.7 17L1.5 0 .1 1.4l16.2 16.3L0 34l1.6 1.4 17.1-17z"/></symbol><symbol viewBox="0 0 451.847 451.847" id="arrow-down" xmlns="http://www.w3.org/2000/svg"><path d="M225.923 354.706c-8.098 0-16.195-3.092-22.369-9.263L9.27 151.157c-12.359-12.359-12.359-32.397 0-44.751 12.354-12.354 32.388-12.354 44.748 0l171.905 171.915 171.906-171.909c12.359-12.354 32.391-12.354 44.744 0 12.365 12.354 12.365 32.392 0 44.751L248.292 345.449c-6.177 6.172-14.274 9.257-22.369 9.257z"/></symbol><symbol viewBox="0 0 24 24" id="build" xmlns="http://www.w3.org/2000/svg"><path d="M12 7V3H2v18h20V7H12zM6 19H4v-2h2v2zm0-4H4v-2h2v2zm0-4H4V9h2v2zm0-4H4V5h2v2zm4 12H8v-2h2v2zm0-4H8v-2h2v2zm0-4H8V9h2v2zm0-4H8V5h2v2zm10 12h-8v-2h2v-2h-2v-2h2v-2h-2V9h8v10zm-2-8h-2v2h2v-2zm0 4h-2v2h2v-2z"/></symbol><symbol viewBox="0 0 15.642 15.642" id="close" xmlns="http://www.w3.org/2000/svg"><path fill-rule="evenodd" d="M8.882 7.821l6.541-6.541A.75.75 0 1 0 14.362.219L7.821 6.76 1.28.22A.75.75 0 1 0 .219 1.281L6.76 7.822l-6.54 6.54a.75.75 0 0 0 1.06 1.061l6.541-6.541 6.541 6.541a.75.75 0 1 0 1.06-1.061l-6.54-6.541z"/></symbol><symbol id="decor" viewBox="0 0 20 121.5" xmlns="http://www.w3.org/2000/svg"><style>.est0{clip-path:url(#eSVGID_2_);fill:#ffc94e}</style><defs><path id="eSVGID_1_" d="M0 0h20v126H0z"/></defs><clipPath id="eSVGID_2_"><use xlink:href="#eSVGID_1_" overflow="visible"/></clipPath><path class="est0" d="M12.2 16.8l7.4-7.4c.3-.3.4-.6.4-.9V1.3c0-1.1-1.4-1.7-2.2-.9l-7.3 7.3v-3h-1v3L2.2.4C1.4-.4 0 .1 0 1.3v7.2c0 .3.1.7.4.9l7.4 7.4c.5.5 1.2.5 1.7.1v5.7l-7.3-7.3c-.8-.8-2.2-.3-2.2.9v7.2c0 .3.1.7.4.9l7.4 7.4c.5.5 1.2.5 1.7.1v5.7l-7.3-7.3c-.8-.8-2.2-.3-2.2.9v7.2c0 .3.1.7.4.9l7.4 7.4c.5.5 1.2.5 1.7.1v5.7l-7.3-7.3c-.8-.8-2.2-.3-2.2.9v7.2c0 .3.1.7.4.9l7.4 7.4c.5.5 1.2.5 1.7.1v5.7L2.2 60c-.8-.8-2.2-.3-2.2.9v7.2c0 .3.1.7.4.9l7.4 7.4c.5.5 1.2.5 1.7.1v5.7l-7.3-7.3c-.8-.9-2.2-.3-2.2.9V83c0 .3.1.7.4.9l7.4 7.4c.5.5 1.2.5 1.7.1v5.7l-7.3-7.3c-.8-.9-2.2-.3-2.2.9v7.2c0 .3.1.7.4.9l7.4 7.4c.5.5 1.2.5 1.7.1v5.7l-7.3-7.3c-.8-.8-2.2-.2-2.2.9v7.2c0 .3.1.7.4.9l7.4 7.4c.5.5 1.2.5 1.7.1v.4c.3 0 .5-.1.8-.1h.2v-.3c.5.4 1.2.4 1.7-.1l7.4-7.4c.2-.2.4-.6.4-.9v-7.2c0-1.1-1.4-1.7-2.2-.9l-7.3 7.3v-5.7c.5.4 1.2.4 1.7-.1l7.4-7.4c.2-.2.4-.6.4-.9v-7.2c0-1.1-1.4-1.7-2.2-.9l-7.3 7.3v-5.7c.5.4 1.2.4 1.7-.1l7.4-7.4c.2-.2.4-.6.4-.9v-7.2c0-1.1-1.4-1.7-2.2-.9l-7.3 7.3v-5.7c.5.4 1.2.4 1.7-.1l7.4-7.4c.2-.2.4-.6.4-.9v-7.2c0-1.1-1.4-1.7-2.2-.9l-7.3 7.3v-5.7c.5.4 1.2.4 1.7-.1l7.4-7.4c.2-.2.4-.6.4-.9V46c0-1.1-1.4-1.7-2.2-.9l-7.3 7.3v-5.7c.5.4 1.2.4 1.7-.1l7.4-7.4c.2-.2.4-.6.4-.9v-7.2c0-1.1-1.4-1.7-2.2-.9l-7.3 7.3v-5.7c.5.4 1.2.4 1.7-.1l7.4-7.4c.2-.2.4-.6.4-.9v-7.2c0-1.1-1.4-1.7-2.2-.9l-7.3 7.3v-5.7c.5.4 1.2.4 1.7-.1z"/></symbol><symbol id="decor-r" viewBox="0 0 20.5 121.9" xmlns="http://www.w3.org/2000/svg"><style>.fst0{clip-path:url(#fSVGID_2_);fill:#ffc94e}</style><defs><path id="fSVGID_1_" transform="rotate(-89.804 10.23 58.839)" d="M-52.7 48.8h126v20h-126z"/></defs><clipPath id="fSVGID_2_"><use xlink:href="#fSVGID_1_" overflow="visible"/></clipPath><path class="fst0" d="M7.9 105l-7.5 7.4c-.2.2-.4.6-.4.9v7.2c0 1.1 1.4 1.7 2.2.9l7.4-7.3v3h1v-3l7.3 7.4c.8.8 2.2.2 2.2-.9v-7.2c0-.3-.1-.7-.4-.9l-7.4-7.5c-.5-.5-1.2-.5-1.7-.1v-5.7l7.3 7.4c.8.8 2.2.2 2.2-.9v-7.2c0-.3-.1-.7-.4-.9l-7.4-7.5c-.5-.5-1.2-.5-1.7-.1v-5.7l7.3 7.4c.8.8 2.2.2 2.2-.9v-7.2c0-.3-.1-.7-.4-.9l-7.4-7.5c-.5-.5-1.2-.5-1.7-.1v-5.7l7.3 7.4c.8.8 2.2.2 2.2-.9v-7.2c0-.3-.1-.7-.4-.9l-7.4-7.5c-.5-.5-1.2-.5-1.7-.1v-5.7l7.3 7.4c.8.8 2.2.2 2.2-.9v-7.2c0-.3-.1-.7-.4-.9l-7.4-7.5c-.5-.5-1.2-.5-1.7-.1v-5.7l7.3 7.4c.8.8 2.2.2 2.2-.9v-7.2c0-.3-.1-.7-.4-.9l-7.4-7.5c-.5-.5-1.2-.5-1.7-.1v-5.7l7.3 7.4c.8.8 2.2.2 2.2-.9V24c0-.3-.1-.7-.4-.9l-7.4-7.5c-.5-.5-1.2-.5-1.7-.1V9.8l7.3 7.4c.8.8 2.2.2 2.2-.9V9.1c0-.3-.1-.7-.4-.9L12.3.7c-.5-.5-1.2-.5-1.7-.1V0h-1v.6C9.5.3 8.7.2 8.2.7L.8 8.1c-.3.3-.4.6-.4.9v7.2c0 1.1 1.4 1.7 2.2.9L10 9.8v5.7c-.5-.4-1.2-.4-1.7.1L.7 23c-.2.2-.4.6-.4.9v7.2c0 1.1 1.4 1.7 2.2.9l7.4-7.3v5.7c-.5-.4-1.3-.4-1.8.1L.6 37.9c-.2.2-.4.6-.4.9V46c0 1.1 1.4 1.7 2.2.9l7.4-7.3v5.7c-.5-.4-1.2-.4-1.7.1L.6 52.8c-.2.2-.4.6-.4.9v7.2c0 1.1 1.4 1.7 2.2.9l7.4-7.3v5.7c-.5-.4-1.2-.4-1.7.1L.6 67.7c-.2.2-.4.6-.4.9v7.2c0 1.1 1.4 1.7 2.2.9l7.4-7.3v5.7c-.5-.4-1.2-.4-1.7.1L.6 82.6c-.2.2-.4.6-.4.9v7.2c0 1.1 1.4 1.7 2.2.9l7.4-7.3V90c-.5-.4-1.2-.4-1.7.1L.6 97.5c-.2.2-.4.6-.4.9v7.2c0 1.1 1.4 1.7 2.2.9l7.4-7.3v5.7c-.7-.4-1.4-.4-1.9.1z"/></symbol><symbol viewBox="0 0 84 84" id="directions-01" xmlns="http://www.w3.org/2000/svg"><title>EFT_icons</title><path d="M34.55 50.05l9.3-5.37 4.5 1.2a11.72 11.72 0 0 0 14.4-8.31l1.4-5.23a1.84 1.84 0 0 0-1.3-2.26l-5.23-1.41a12.16 12.16 0 0 0-3-.4A11.79 11.79 0 0 0 43.21 37L42 41.48l-7.46 4.31V36l5.14-5.14a16.57 16.57 0 0 0 0-23.4L34 1.74a1.81 1.81 0 0 0-1.3-.54 1.85 1.85 0 0 0-1.31.54l-5.67 5.68a16.56 16.56 0 0 0 0 23.4L30.86 36v9.83l-7.45-4.31L22.2 37a11.77 11.77 0 0 0-11.35-8.72 12.1 12.1 0 0 0-3 .4l-5.28 1.4a1.84 1.84 0 0 0-1.31 2.26l1.4 5.23A11.79 11.79 0 0 0 14 46.29a11.73 11.73 0 0 0 3.05-.41l4.49-1.2 9.3 5.37v18.56l-7.43-4.31-1.21-4.49a11.77 11.77 0 0 0-11.35-8.72 12.1 12.1 0 0 0-3 .4L2.57 52.9a1.84 1.84 0 0 0-1.31 2.26l1.4 5.23A11.79 11.79 0 0 0 14 69.11a11.73 11.73 0 0 0 3.05-.41l4.49-1.2 9.3 5.37v6.24H17a1.85 1.85 0 0 0 0 3.69h31.41a1.85 1.85 0 1 0 0-3.69H34.55v-6.24l9.3-5.37 4.5 1.2a11.72 11.72 0 0 0 14.4-8.31l1.4-5.23a1.84 1.84 0 0 0-1.3-2.26l-5.23-1.41a12.16 12.16 0 0 0-3-.4 11.79 11.79 0 0 0-11.36 8.72L42 64.3l-7.46 4.31zM46.78 38a8.07 8.07 0 0 1 7.79-6 7.85 7.85 0 0 1 2.09.28l3.45.92-.92 3.45a8.08 8.08 0 0 1-7.79 6 8.3 8.3 0 0 1-2.1-.28l-3.45-.93zm-30.67 4.32a8.28 8.28 0 0 1-2.11.28 8.08 8.08 0 0 1-7.79-6l-.91-3.44 3.45-.92a7.92 7.92 0 0 1 2.1-.28 8.08 8.08 0 0 1 7.79 6l.92 3.44zm0 22.82a8.22 8.22 0 0 1-2.09.28 8.08 8.08 0 0 1-7.79-6L5.3 56l3.45-.92a7.92 7.92 0 0 1 2.1-.28 8.08 8.08 0 0 1 7.79 6l.92 3.44zm30.67-4.37a8.07 8.07 0 0 1 7.79-6 7.85 7.85 0 0 1 2.09.28l3.45.92-.92 3.45a8.08 8.08 0 0 1-7.79 6 8.3 8.3 0 0 1-2.1-.28l-3.45-.93zM28.33 28.21a12.87 12.87 0 0 1 0-18.18l4.38-4.38L37.08 10a12.87 12.87 0 0 1 0 18.18l-2.53 2.53V19.12a1.85 1.85 0 1 0-3.69 0v11.62zM67.94 11.4a1.83 1.83 0 0 0 1.3-.54L72.6 7.5V32a1.85 1.85 0 0 0 3.69 0V7.5l3.36 3.36a1.85 1.85 0 1 0 2.61-2.61l-6.51-6.51a1.81 1.81 0 0 0-1.3-.54 1.85 1.85 0 0 0-1.31.54l-6.51 6.51a1.85 1.85 0 0 0 1.31 3.15zm11.71 61.74l-3.36 3.36V52a1.85 1.85 0 0 0-3.69 0v24.5l-3.36-3.36a1.85 1.85 0 0 0-2.61 2.61l6.51 6.51a1.86 1.86 0 0 0 1.31.54 1.83 1.83 0 0 0 1.3-.54l6.51-6.51a1.85 1.85 0 1 0-2.61-2.61zM70.76 42a3.69 3.69 0 1 0 3.69-3.69A3.69 3.69 0 0 0 70.76 42z"/></symbol><symbol viewBox="0 0 84 84" id="directions-02" xmlns="http://www.w3.org/2000/svg"><title>EFT_icons</title><path d="M80.48 70.32H70.39c-2.78-4.88-6.11-10-13.31-10h-3.31a14.45 14.45 0 0 0-10.4-6.64v-5l9.3-5.37 4.5 1.2a11.72 11.72 0 0 0 14.4-8.31L73 31a1.84 1.84 0 0 0-1.3-2.26l-5.23-1.4A11.73 11.73 0 0 0 52 35.66l-1.2 4.49-7.46 4.31v-9.83l5.14-5.14a16.54 16.54 0 0 0 0-23.4L42.83.41a1.85 1.85 0 0 0-2.61 0l-5.68 5.68a16.56 16.56 0 0 0 0 23.4l5.14 5.14v9.83l-7.45-4.31L31 35.66a11.72 11.72 0 0 0-14.4-8.31l-5.23 1.4A1.84 1.84 0 0 0 10.08 31l1.4 5.23A11.79 11.79 0 0 0 22.84 45a11.73 11.73 0 0 0 3.05-.41l4.49-1.2 9.3 5.37v5a14.48 14.48 0 0 0-10.4 6.64H26c-7.2 0-10.54 5.13-13.31 10H2.57a1.84 1.84 0 0 0-1.84 1.76V82a1.84 1.84 0 0 0 1.84 1.85h77.91A1.85 1.85 0 0 0 82.33 82v-9.84a1.84 1.84 0 0 0-1.85-1.84zM55.6 36.62a8.07 8.07 0 0 1 7.79-6 8.28 8.28 0 0 1 2.09.28l3.45.92-.93 3.46a8.08 8.08 0 0 1-7.79 6 8.3 8.3 0 0 1-2.1-.28l-3.45-.92zM24.93 41a8.22 8.22 0 0 1-2.09.28 8.08 8.08 0 0 1-7.79-6l-.92-3.45 3.44-.92a8.36 8.36 0 0 1 2.1-.28 8.08 8.08 0 0 1 7.79 6l.92 3.45zm12.22-14.12a12.87 12.87 0 0 1 0-18.18l4.38-4.38L45.9 8.7a12.84 12.84 0 0 1 0 18.18l-2.53 2.53V17.79a1.85 1.85 0 0 0-3.69 0v11.62zm41.49 53.28H4.42V74h9.32a1.85 1.85 0 0 0 1.61-.94C18.53 67.42 20.84 64 26 64h4.37A1.84 1.84 0 0 0 32 63a10.79 10.79 0 0 1 19.1 0 1.84 1.84 0 0 0 1.63 1h4.37c5.14 0 7.44 3.42 10.63 9.07a1.83 1.83 0 0 0 1.6.94h9.33z"/><path d="M41.53 65a3.69 3.69 0 1 0 3.69 3.69A3.69 3.69 0 0 0 41.53 65z"/></symbol><symbol viewBox="0 0 84 84" id="directions-03" xmlns="http://www.w3.org/2000/svg"><title>EFT_icons</title><path d="M47.36 61.35a7.31 7.31 0 1 0 7.31 7.31 7.32 7.32 0 0 0-7.31-7.31zm0 10.93A3.62 3.62 0 1 1 51 68.66a3.63 3.63 0 0 1-3.64 3.62zm.97-31.9h9.85a1.85 1.85 0 0 0 0-3.69h-9.85a1.85 1.85 0 0 0 0 3.69zm0 8.2h9.85a1.85 1.85 0 0 0 0-3.69h-9.85a1.85 1.85 0 0 0 0 3.69z"/><path d="M82.22 66.81l.78 1V48.73A20.76 20.76 0 0 0 62.26 28h-2.45v-4.9l3.55-3.51a1.86 1.86 0 0 0 .55-1.32v-5.2a1.85 1.85 0 0 0-1.85-1.85H44.45a1.85 1.85 0 0 0-1.85 1.85v5.2a1.86 1.86 0 0 0 .55 1.32l3.55 3.51V28H40l-5.08-4.47a1.88 1.88 0 0 0-1.22-.45H15.54a1.84 1.84 0 0 0-1.84 1.84v11.77H2.49a1.84 1.84 0 0 0-1.84 1.84v5.91a1.85 1.85 0 0 0 1.14 1.71l11.91 4.93v17.58a1.84 1.84 0 0 0 1.84 1.84h17.25a14.69 14.69 0 0 0 29.14 0h20.29a1.85 1.85 0 1 0 0-3.69zM49.85 21l-3.56-3.5v-2.59h13.93v2.59L56.66 21a1.84 1.84 0 0 0-.55 1.31V28H50.4v-5.67a1.84 1.84 0 0 0-.55-1.33zM4.34 40.38h26.38V51h-7.64L4.34 43.21zM17.39 52.6L22 54.52a1.86 1.86 0 0 0 .7.14h9.86a1.84 1.84 0 0 0 1.84-1.85V38.53a1.84 1.84 0 0 0-1.84-1.84H17.39v-9.92H33l5.08 4.46a1.87 1.87 0 0 0 1.22.46h22.96a17.06 17.06 0 0 1 17.05 17v18.12H61.93a14.69 14.69 0 0 0-29.14 0h-15.4zm30 27.06a11 11 0 1 1 11-11 11 11 0 0 1-11.03 11z"/></symbol><symbol viewBox="0 0 84 84" id="directions-04" xmlns="http://www.w3.org/2000/svg"><title>EFT_icons</title><path d="M35 61.52H19.15a1.85 1.85 0 0 0 0 3.69H35a1.85 1.85 0 0 0 0-3.69zm-5.31 8.2h-5.27a1.85 1.85 0 1 0 0 3.69h5.27a1.85 1.85 0 1 0 0-3.69z"/><path d="M36.19 32V12.78a5.94 5.94 0 0 0-1.4-11.72H19.32a5.94 5.94 0 0 0-1.4 11.72V32a26.14 26.14 0 1 0 18.27 0zm-15.87 3.11a1.84 1.84 0 0 0 1.29-1.76V11.1a1.84 1.84 0 0 0-1.84-1.84h-.45a2.26 2.26 0 0 1 0-4.51h15.47a2.26 2.26 0 0 1 0 4.51h-.45a1.84 1.84 0 0 0-1.84 1.84v22.25a1.84 1.84 0 0 0 1.29 1.76A22.32 22.32 0 0 1 48 48.45a10.22 10.22 0 0 0-4.95 2.95c-1.36 1.26-2.35 2.17-4.5 2.17s-3.14-.91-4.5-2.17c-1.52-1.41-3.41-3.17-7-3.17S21.56 50 20 51.4c-1.36 1.26-2.34 2.17-4.49 2.17s-3.14-.91-4.5-2.17a10.22 10.22 0 0 0-5-2.95 22.3 22.3 0 0 1 14.31-13.34zM27.05 79A22.47 22.47 0 0 1 4.61 56.53 23.35 23.35 0 0 1 5.06 52a6.58 6.58 0 0 1 3.48 2.1c1.52 1.41 3.41 3.16 7 3.16s5.49-1.75 7-3.16c1.36-1.26 2.34-2.18 4.49-2.18s3.14.92 4.5 2.18c1.52 1.41 3.41 3.16 7 3.16s5.49-1.75 7-3.16a6.51 6.51 0 0 1 3.52-2.1 23.35 23.35 0 0 1 .45 4.53A22.47 22.47 0 0 1 27.05 79zm44.5-63.71h-3.26V12a1.85 1.85 0 1 0-3.69 0v3.26h-3.26a1.85 1.85 0 0 0 0 3.69h3.26v3.26a1.85 1.85 0 0 0 3.69 0V19h3.26a1.85 1.85 0 1 0 0-3.69z"/><path d="M66.45 1.06a16.08 16.08 0 1 0 16.07 16.07A16.09 16.09 0 0 0 66.45 1.06zm0 28.46a12.39 12.39 0 1 1 12.38-12.39 12.41 12.41 0 0 1-12.38 12.39zm0 10.48a3.7 3.7 0 1 0 3.69 3.69A3.69 3.69 0 0 0 66.45 40zm0 14a3.69 3.69 0 1 0 3.69 3.69A3.69 3.69 0 0 0 66.45 54zm0 14a3.69 3.69 0 1 0 3.69 3.69A3.69 3.69 0 0 0 66.45 68z"/></symbol><symbol viewBox="0 0 84 84" id="directions-05" xmlns="http://www.w3.org/2000/svg"><title>EFT_icons</title><path d="M20.45 65.22h-3.77a1.85 1.85 0 1 0 0 3.69h3.77a1.85 1.85 0 0 0 0-3.69zm23.25 0h-3.77a1.85 1.85 0 1 0 0 3.69h3.77a1.85 1.85 0 0 0 0-3.69zm23.3 0h-3.82a1.85 1.85 0 1 0 0 3.69H67a1.85 1.85 0 0 0 0-3.69z"/><path d="M80.77 55.7h-8.12v-24a30.84 30.84 0 1 0-61.67 0v24H2.86A1.85 1.85 0 0 0 1 57.55v23.12a1.84 1.84 0 0 0 1.85 1.84 12.44 12.44 0 0 0 7.48-2.33 8.75 8.75 0 0 1 5.5-1.77 8.76 8.76 0 0 1 5.51 1.77 12.42 12.42 0 0 0 7.48 2.33 12.44 12.44 0 0 0 7.48-2.33 8.75 8.75 0 0 1 5.5-1.77 8.76 8.76 0 0 1 5.51 1.77 13.17 13.17 0 0 0 15 0 9.45 9.45 0 0 1 11 0 12.42 12.42 0 0 0 7.48 2.33 1.84 1.84 0 0 0 1.84-1.84V57.55a1.84 1.84 0 0 0-1.86-1.85zm-66.1-24a27.15 27.15 0 1 1 54.29 0v24h-25.3v-6.24l5.14-5.14a16.57 16.57 0 0 0 0-23.4l-5.68-5.68a1.85 1.85 0 0 0-2.61 0l-5.68 5.68a16.57 16.57 0 0 0 0 23.4L40 49.46v6.24H14.67zm27.14-1A1.84 1.84 0 0 0 40 32.62v11.62l-2.53-2.53a12.87 12.87 0 0 1 0-18.18l4.37-4.38 4.38 4.38a12.87 12.87 0 0 1 0 18.18l-2.53 2.53V32.62a1.85 1.85 0 0 0-1.88-1.85zm37.11 47.9a9.45 9.45 0 0 1-3.66-1.61 13.11 13.11 0 0 0-15 0 9.51 9.51 0 0 1-11 0 12.32 12.32 0 0 0-7.48-2.34 12.31 12.31 0 0 0-7.47 2.34 8.84 8.84 0 0 1-5.51 1.76 8.84 8.84 0 0 1-5.51-1.76 12.35 12.35 0 0 0-7.48-2.34 12.31 12.31 0 0 0-7.47 2.34 9.49 9.49 0 0 1-3.64 1.68V59.39h74.22z"/></symbol><symbol viewBox="0 0 84 84" id="directions-06" xmlns="http://www.w3.org/2000/svg"><title>EFT_icons</title><path d="M24.2 37.11c0-4.15-5.9-10.94-7.08-12.26a1.85 1.85 0 0 0-2.75 0C13.19 26.17 7.28 33 7.28 37.11a8.46 8.46 0 1 0 16.92 0zm-13.2 0c0-1.68 2.47-5.36 4.77-8.18 2.3 2.82 4.77 6.5 4.77 8.18a4.77 4.77 0 0 1-9.54 0zm39.64 0c0-4.15-5.91-10.94-7.09-12.26a1.85 1.85 0 0 0-2.75 0c-1.18 1.32-7.09 8.11-7.09 12.26a8.47 8.47 0 0 0 16.93 0zm-13.23 0c0-1.68 2.47-5.36 4.77-8.18 2.29 2.82 4.77 6.5 4.77 8.18a4.77 4.77 0 1 1-9.54 0zm39.66 0c0-4.15-5.9-10.94-7.09-12.26a1.84 1.84 0 0 0-2.74 0c-1.19 1.32-7.09 8.11-7.09 12.26a8.46 8.46 0 1 0 16.92 0zm-13.23 0c0-1.68 2.47-5.36 4.77-8.18 2.3 2.82 4.77 6.5 4.77 8.18a4.77 4.77 0 0 1-9.54 0zM3.22 5.17h77.91a1.85 1.85 0 1 0 0-3.69H3.22a1.85 1.85 0 0 0 0 3.69zm77.91 5.34H3.22a1.85 1.85 0 0 0 0 3.69H13.9v3.68a1.85 1.85 0 1 0 3.69 0V14.2h22.74v3.68a1.85 1.85 0 1 0 3.69 0V14.2h22.74v3.68a1.85 1.85 0 1 0 3.69 0V14.2h10.68a1.85 1.85 0 1 0 0-3.69zm0 43.19H3.22a1.84 1.84 0 0 0-1.84 1.84v25.7a1.84 1.84 0 0 0 1.84 1.85h77.91A1.85 1.85 0 0 0 83 81.24v-25.7a1.85 1.85 0 0 0-1.87-1.84zm-1.84 25.7H5.07v-22h74.22z"/><path d="M13.07 66.26h3.87a1.85 1.85 0 0 0 0-3.69h-3.87a1.85 1.85 0 0 0 0 3.69zm18.12 0h3.86a1.85 1.85 0 1 0 0-3.69h-3.86a1.85 1.85 0 1 0 0 3.69zm18.11 0h3.87a1.85 1.85 0 0 0 0-3.69H49.3a1.85 1.85 0 1 0 0 3.69zm18.11 0h3.87a1.85 1.85 0 0 0 0-3.69h-3.87a1.85 1.85 0 0 0 0 3.69zm-45.28 7.96H26a1.85 1.85 0 0 0 0-3.69h-3.87a1.85 1.85 0 1 0 0 3.69zm18.11 0h3.87a1.85 1.85 0 0 0 0-3.69h-3.87a1.85 1.85 0 0 0 0 3.69zm18.12 0h3.86a1.85 1.85 0 1 0 0-3.69h-3.86a1.85 1.85 0 1 0 0 3.69z"/></symbol><symbol viewBox="0 0 84 84" id="directions-07" xmlns="http://www.w3.org/2000/svg"><title>EFT_icons</title><path d="M40.14 79.11H4V17.38h42.92a1.85 1.85 0 1 0 0-3.69H4v-8.8h55.35V15A1.85 1.85 0 0 0 63 15V3a1.84 1.84 0 0 0-1.81-1.8h-59A1.84 1.84 0 0 0 .35 3v78a1.84 1.84 0 0 0 1.84 1.8h38a1.85 1.85 0 0 0 0-3.69z"/><path d="M20.63 31.12H35a1.85 1.85 0 0 0 0-3.7H20.63a8 8 0 0 0-8 8v25.76a8 8 0 0 0 8 8h7.53a1.85 1.85 0 1 0 0-3.69h-7.53a4.34 4.34 0 0 1-4.33-4.34v-25.7a4.33 4.33 0 0 1 4.33-4.33z"/><path d="M79.35 39.35L78.4 38a25.15 25.15 0 0 0-20.2-10.26 26.25 26.25 0 0 0-3 .17A25.15 25.15 0 0 0 38 38l-1 1.35a24.81 24.81 0 0 0-4 13.48c0 10.43 13 19 20.81 23.14a9 9 0 0 0 8.55 0c7.77-4.17 20.81-12.71 20.81-23.14a24.8 24.8 0 0 0-3.82-13.48zm-37.12-1c.12-.13.24-.27.37-.4s.32-.33.48-.49l.38-.37.54-.49.36-.32c.22-.18.44-.36.67-.53l.27-.21c.32-.24.65-.47 1-.69l.29-.18.73-.46.41-.22.65-.36.45-.22.63-.3.48-.2.64-.26.5-.18c.21-.07.42-.15.64-.21l.51-.16.66-.18.51-.13.68-.14.5-.1.73-.1.48-.07.81-.07h3.25l.81.07.48.07.72.1.51.1.68.14.51.13.66.18.51.16c.22.06.43.14.65.21l.49.18.64.26.47.2.65.31.44.21.67.36.39.22.79.49.23.14 1 .7.2.16.74.59.32.28c.2.17.4.34.59.52l.34.33.52.53c.12.12.23.25.34.37l.29.33c-3.92 2.47-9.84 3.91-16.26 3.91S45.87 41.12 42 38.65c0-.1.13-.21.23-.31zm18.6 34.55a5.55 5.55 0 0 1-5.25 0c-5.7-3.06-19-11.13-19-20.06a21.41 21.41 0 0 1 3.24-11.37c4.5 2.9 11.18 4.6 18.34 4.6s13.85-1.7 18.35-4.6a21.32 21.32 0 0 1 3.24 11.37c.04 8.92-13.22 16.99-18.92 20.05z"/><path d="M50.11 61.64c-3.45-2.8-5.42-5.71-5.87-8.66A21.39 21.39 0 0 1 44 50a1.75 1.75 0 1 0-3.5 0 23.75 23.75 0 0 0 .29 3.46c.58 3.83 3 7.49 7.13 10.85a1.75 1.75 0 0 0 2.2-2.72z"/></symbol><symbol viewBox="0 0 84 84" id="directions-08" xmlns="http://www.w3.org/2000/svg"><title>EFT_icons</title><path d="M34.35 18.41a1.85 1.85 0 1 0 0-3.69 12 12 0 0 0-12 12 1.85 1.85 0 0 0 3.69 0 8.31 8.31 0 0 1 8.31-8.31z"/><path d="M79.72 26A1.85 1.85 0 0 0 78 24.87h-8.26A20.16 20.16 0 0 0 44.39 7.22a7.08 7.08 0 0 1 2.38-3.12 1.84 1.84 0 1 0-2.18-3 10.83 10.83 0 0 0-4.13 6.34 19.91 19.91 0 0 0-6.11-1 20.21 20.21 0 0 0-20.1 18.35H6A1.84 1.84 0 0 0 4.27 26 40.81 40.81 0 1 0 82.8 41.57 40.58 40.58 0 0 0 79.72 26zM34.35 10.21a16.41 16.41 0 0 1 6.87 1.5 1.8 1.8 0 0 0 1.54 0 16.51 16.51 0 0 1 23.38 15c0 9.41-11.56 22.88-19.63 22.88h-9c-8.07 0-19.63-13.47-19.63-22.88a16.52 16.52 0 0 1 16.47-16.5zm35.46 55.9V47a1.85 1.85 0 0 0-3.69 0v22.75a37.13 37.13 0 0 1-9.3 5.84V57.66a1.85 1.85 0 0 0-3.69 0V77a36.57 36.57 0 0 1-9.29 1.67v-19a1.85 1.85 0 1 0-3.69 0v19a36.72 36.72 0 0 1-9.3-1.67V57.66a1.85 1.85 0 0 0-3.69 0v17.93a37.25 37.25 0 0 1-9.29-5.84V47a1.85 1.85 0 0 0-3.69 0v19.1a37.08 37.08 0 0 1-6.95-37.54h7C15.56 39.71 28 53.29 37.48 53.29h9c9.5 0 21.91-13.58 23.2-24.73h7.05a37.15 37.15 0 0 1-7 37.55z"/></symbol><symbol viewBox="0 0 84 84" id="directions-09" xmlns="http://www.w3.org/2000/svg"><title>EFT_icons</title><path d="M51.94 54.78a11.64 11.64 0 0 0-.87-4.47A11.9 11.9 0 1 0 40 31a11.88 11.88 0 0 0-18.33 0 11.9 11.9 0 1 0-11 19.34 11.91 11.91 0 0 0 9.16 16.23 11.91 11.91 0 1 0 22.07 0 11.92 11.92 0 0 0 10.04-11.79zM39 62.92a1.84 1.84 0 0 0-1.68 3A8.09 8.09 0 0 1 39.09 71a8.21 8.21 0 0 1-16.42 0 8.14 8.14 0 0 1 1.79-5.12 1.84 1.84 0 0 0-1.44-3h-.24a8.86 8.86 0 0 1-1.07.08 8.23 8.23 0 0 1-8.21-8.22 8.09 8.09 0 0 1 1.8-5.11 1.85 1.85 0 0 0-1.68-3 7.4 7.4 0 0 1-1.07.08A8.21 8.21 0 1 1 20 35.18a1.85 1.85 0 0 0 3.37 0 8.2 8.2 0 0 1 15 0 1.84 1.84 0 0 0 3.36 0 8.21 8.21 0 1 1 7.47 11.58 7.4 7.4 0 0 1-1.07-.08 1.85 1.85 0 0 0-1.68 3 8.09 8.09 0 0 1 1.8 5.11A8.22 8.22 0 0 1 40 63a9.16 9.16 0 0 1-1-.08zM19.9 18.31A1.85 1.85 0 0 0 21.58 15 5.12 5.12 0 1 1 29 10.46v9.83a1.85 1.85 0 1 0 3.69 0v-9.83a8.81 8.81 0 1 0-12.79 7.85z"/><path d="M81.66 35.44c-6.49-6-10.76-9.89-12.27-11.27V12l2.12-1.57a1.82 1.82 0 0 0 .75-1.48V3.33a1.85 1.85 0 0 0-1.85-1.85h-16.7a1.85 1.85 0 0 0-1.85 1.85v5.58a1.82 1.82 0 0 0 .75 1.48L54.73 12v9.9a1.85 1.85 0 0 0 3.69 0V11a1.82 1.82 0 0 0-.75-1.48L55.55 8V5.17h13V8l-2.11 1.55A1.84 1.84 0 0 0 65.7 11v14a1.87 1.87 0 0 0 .6 1.37s4.48 4.06 12.26 11.24v37.45a4.34 4.34 0 0 1-4.33 4.34H46.6a1.85 1.85 0 1 0 0 3.69h27.63a8 8 0 0 0 8-8V36.8a1.84 1.84 0 0 0-.57-1.36z"/><path d="M50.68 68.15A1.84 1.84 0 0 0 52.52 70h17.76a1.85 1.85 0 0 0 1.85-1.85v-20.6a1.85 1.85 0 0 0-3.69 0v18.76H52.52a1.84 1.84 0 0 0-1.84 1.84z"/></symbol><symbol id="logo" viewBox="0 0 135.4 24.4" xmlns="http://www.w3.org/2000/svg"><style>.pst0{clip-path:url(#pSVGID_2_);fill:#45ac34}</style><defs><path id="pSVGID_1_" d="M0 0h135.4v24.4H0z"/></defs><clipPath id="pSVGID_2_"><use xlink:href="#pSVGID_1_" overflow="visible"/></clipPath><path class="pst0" d="M127.7 10.2c0 1.4-.8 2.1-2.7 2.1h-1.7V8c.3 0 1.4-.1 1.7-.1 1.8 0 2.7.6 2.7 2.1v.2m-29.3 7.6c1.8 0 2.6-1.1 2.6-3.6v-2.5c0-2.5-.8-3.6-2.6-3.6s-2.6 1.1-2.6 3.6v2.5c0 2.5.9 3.6 2.6 3.6m-11-7.7v-.2c0-1.3-1-1.9-2.8-1.9H83v4.1h1.5c2.3 0 2.9-.5 2.9-2M0 4.2V.4C0 .2.2 0 .5 0c.1 0 .3.1.3.2.7.8 1.7 1.3 2.8 1.3h3.6c2.2 0 4.1.9 5.4 2.4C14 2.5 15.9 1.5 18 1.5h110.1c4 0 7.2 3.2 7.2 7.2v8.4c0 4-3.2 7.2-7.2 7.2H19.8c-1 0-1.8-.8-1.8-1.8V12.2h.9c4.5 0 8.1-3.7 8.1-8.2v-.2c0-.2-.2-.5-.5-.5-.1 0-.3.1-.3.2-.7.8-1.7 1.3-2.8 1.3H18c-2 0-3.6 1.6-3.6 3.6v13.9c0 1-.8 1.8-1.8 1.8s-1.8-.8-1.8-1.8v-9.9H8.1C3.6 12.4 0 8.7 0 4.2m119.7 16.2c0 .2.2.4.4.4h2.7c.2 0 .4-.2.4-.4v-5.1c.5 0 1.2.1 1.7.1 3.1 0 6.3-1.2 6.3-5.1V10c0-4-3.1-5.1-6.3-5.1-1.5 0-3.2.1-4.3.3-.7.1-.9.3-.9 1v14.2zm-13.8-5.5c0 4.8 2.7 6.1 6.1 6.1 3.4 0 6.1-1.3 6.1-6.1V5.5c0-.2-.2-.4-.4-.4H115c-.2 0-.4.2-.4.4v9.4c0 2.2-.6 3.1-2.5 3.1s-2.5-.9-2.5-3.1V5.5c0-.2-.2-.4-.4-.4h-2.8c-.2 0-.4.2-.4.4v9.4zm-13.7-.7c0 4.9 2.8 6.8 6.2 6.8 3.5 0 6.2-1.9 6.2-6.8v-2.5c0-4.9-2.8-6.8-6.2-6.8-3.5 0-6.2 1.9-6.2 6.8v2.5zm-12.8 6.2c0 .2.2.4.4.4h2.7c.2 0 .4-.2.4-.4V15h1.7l2.8 5.3c.1.2.2.4.4.4H91c.2 0 .3-.1.3-.3 0-.1 0-.1-.1-.2l-3.2-6c1.5-.6 2.7-2 2.7-4.2v-.1c0-3.7-2.8-4.9-6.4-4.9-1.5 0-3.3.1-4.3.3-.7.1-.9.3-.9 1v14.1zm-12.7-6.1c0 5.3 3.6 6.7 6 6.7 2.1 0 3.6-.2 4.7-.4.3-.1.4-.2.4-.5V13c0-.2-.2-.4-.4-.4h-2.7c-.2 0-.4.2-.4.4v4.9c-.5 0-1 .1-1.6.1-1 0-2.4-.7-2.4-3.6v-2.6c0-2.8 1.1-3.6 2.8-3.6 1.8 0 3.4.1 4.4.2h.1c.2 0 .3 0 .3-.3V5.7c0-.2-.1-.3-.4-.3-.8-.2-2.3-.5-4.4-.5-3.1 0-6.4 1.4-6.4 6.7v2.7zM51.2 7.7c0 .2.2.4.4.4H55v12.3c0 .2.2.4.4.4h2.8c.2 0 .4-.2.4-.4V8.1H62c.2 0 .4-.2.4-.4V5.5c0-.2-.2-.4-.4-.4H51.7c-.2 0-.4.2-.4.4v2.2zM40.3 20.4c0 .2.2.4.4.4h2.7c.2 0 .4-.2.4-.4v-6.2h5.5c.2 0 .4-.2.4-.4v-2c0-.2-.2-.4-.4-.4h-5.5V9.5c0-1.1.4-1.4 1.4-1.4h4.3c.2 0 .4-.2.4-.4v-2c0-.3-.1-.4-.4-.4-.7-.1-1.8-.3-4.1-.3-2.7 0-5.2.7-5.2 4.5v10.9zm-11.4-4c0 3.8 2.4 4.5 5.1 4.5 2.3 0 3.4-.2 4.1-.3.3 0 .4-.2.4-.4v-2c0-.2-.2-.4-.4-.4h-4.3c-1 0-1.4-.3-1.4-1.4v-2.2h5.5c.2 0 .4-.2.4-.4v-2c0-.2-.2-.4-.4-.4h-5.5v-2c0-1.1.4-1.4 1.4-1.4h4.3c.2 0 .4-.2.4-.4v-2c0-.3-.1-.4-.4-.4-.7-.1-1.8-.3-4.1-.3-2.7 0-5.1.7-5.1 4.5v7z"/></symbol><symbol viewBox="0 0 24 24" id="mail" xmlns="http://www.w3.org/2000/svg"><path d="M20 4H4c-1.1 0-2 .9-2 2v12c0 1.1.9 2 2 2h16c1.1 0 2-.9 2-2V6c0-1.1-.9-2-2-2zm0 14H4V8l8 5 8-5v10zm-8-7L4 6h16l-8 5z"/></symbol><symbol viewBox="0 0 24 24" id="phone" xmlns="http://www.w3.org/2000/svg"><path d="M6.6 10.8c1.4 2.8 3.8 5.1 6.6 6.6l2.2-2.2c.3-.3.7-.4 1-.2 1.1.4 2.3.6 3.6.6.5 0 1 .4 1 1V20c0 .5-.5 1-1 1-9.4 0-17-7.6-17-17 0-.5.5-1 1-1h3.5c.6 0 1 .5 1 1 0 1.3.2 2.4.6 3.6.1.3 0 .7-.3 1l-2.2 2.2z"/></symbol><symbol viewBox="0 0 56.966 56.966" id="search" xmlns="http://www.w3.org/2000/svg"><path d="M55.146 51.887L41.588 37.786A22.926 22.926 0 0 0 46.984 23c0-12.682-10.318-23-23-23s-23 10.318-23 23 10.318 23 23 23c4.761 0 9.298-1.436 13.177-4.162l13.661 14.208c.571.593 1.339.92 2.162.92.779 0 1.518-.297 2.079-.837a3.004 3.004 0 0 0 .083-4.242zM23.984 6c9.374 0 17 7.626 17 17s-7.626 17-17 17-17-7.626-17-17 7.626-17 17-17z"/></symbol></svg>