<?xml version="1.0" encoding="utf-8"?>
<!-- Generator: Adobe Illustrator 21.1.0, SVG Export Plug-In . SVG Version: 6.00 Build 0)  -->
<svg version="1.1" id="Слой_1" xmlns="http://www.w3.org/2000/svg" xmlns:xlink="http://www.w3.org/1999/xlink" x="0px" y="0px"
	 viewBox="0 0 20 121.5" style="enable-background:new 0 0 20 121.5;" xml:space="preserve">
<style type="text/css">
	.st0{clip-path:url(#SVGID_2_);fill:#FFC94E;}
</style>
<g>
	<g>
		<defs>
			<rect id="SVGID_1_" width="20" height="126"/>
		</defs>
		<clipPath id="SVGID_2_">
			<use xlink:href="#SVGID_1_"  style="overflow:visible;"/>
		</clipPath>
		<path class="st0" d="M12.2,16.8l7.4-7.4C19.9,9.1,20,8.8,20,8.5V1.3c0-1.1-1.4-1.7-2.2-0.9l-7.3,7.3v-3h-1v3L2.2,0.4
			C1.4-0.4,0,0.1,0,1.3v7.2c0,0.3,0.1,0.7,0.4,0.9l7.4,7.4c0.5,0.5,1.2,0.5,1.7,0.1v5.7l-7.3-7.3C1.4,14.5,0,15,0,16.2v7.2
			c0,0.3,0.1,0.7,0.4,0.9l7.4,7.4c0.5,0.5,1.2,0.5,1.7,0.1v5.7l-7.3-7.3C1.4,29.4,0,29.9,0,31.1v7.2c0,0.3,0.1,0.7,0.4,0.9l7.4,7.4
			c0.5,0.5,1.2,0.5,1.7,0.1v5.7l-7.3-7.3C1.4,44.3,0,44.8,0,46v7.2c0,0.3,0.1,0.7,0.4,0.9l7.4,7.4C8.3,62,9,62,9.5,61.6v5.7L2.2,60
			C1.4,59.2,0,59.7,0,60.9v7.2c0,0.3,0.1,0.7,0.4,0.9l7.4,7.4c0.5,0.5,1.2,0.5,1.7,0.1v5.7l-7.3-7.3C1.4,74,0,74.6,0,75.8V83
			c0,0.3,0.1,0.7,0.4,0.9l7.4,7.4c0.5,0.5,1.2,0.5,1.7,0.1v5.7l-7.3-7.3C1.4,88.9,0,89.5,0,90.7v7.2c0,0.3,0.1,0.7,0.4,0.9l7.4,7.4
			c0.5,0.5,1.2,0.5,1.7,0.1v5.7l-7.3-7.3c-0.8-0.8-2.2-0.2-2.2,0.9v7.2c0,0.3,0.1,0.7,0.4,0.9l7.4,7.4c0.5,0.5,1.2,0.5,1.7,0.1v0.4
			c0.3,0,0.5-0.1,0.8-0.1c0.1,0,0.1,0,0.2,0v-0.3c0.5,0.4,1.2,0.4,1.7-0.1l7.4-7.4c0.2-0.2,0.4-0.6,0.4-0.9v-7.2
			c0-1.1-1.4-1.7-2.2-0.9l-7.3,7.3v-5.7c0.5,0.4,1.2,0.4,1.7-0.1l7.4-7.4c0.2-0.2,0.4-0.6,0.4-0.9v-7.2c0-1.1-1.4-1.7-2.2-0.9
			l-7.3,7.3v-5.7c0.5,0.4,1.2,0.4,1.7-0.1l7.4-7.4c0.2-0.2,0.4-0.6,0.4-0.9v-7.2c0-1.1-1.4-1.7-2.2-0.9l-7.3,7.3v-5.7
			c0.5,0.4,1.2,0.4,1.7-0.1l7.4-7.4c0.2-0.2,0.4-0.6,0.4-0.9v-7.2c0-1.1-1.4-1.7-2.2-0.9l-7.3,7.3v-5.7c0.5,0.4,1.2,0.4,1.7-0.1
			l7.4-7.4c0.2-0.2,0.4-0.6,0.4-0.9V46c0-1.1-1.4-1.7-2.2-0.9l-7.3,7.3v-5.7c0.5,0.4,1.2,0.4,1.7-0.1l7.4-7.4
			c0.2-0.2,0.4-0.6,0.4-0.9v-7.2c0-1.1-1.4-1.7-2.2-0.9l-7.3,7.3v-5.7c0.5,0.4,1.2,0.4,1.7-0.1l7.4-7.4c0.2-0.2,0.4-0.6,0.4-0.9
			v-7.2c0-1.1-1.4-1.7-2.2-0.9l-7.3,7.3v-5.7C11,17.3,11.7,17.3,12.2,16.8z"/>
	</g>
</g>
</svg>
