<?xml version="1.0" encoding="utf-8"?>
<!-- Generator: Adobe Illustrator 21.1.0, SVG Export Plug-In . SVG Version: 6.00 Build 0)  -->
<svg version="1.1" id="Слой_1" xmlns="http://www.w3.org/2000/svg" xmlns:xlink="http://www.w3.org/1999/xlink" x="0px" y="0px"
	 viewBox="0 0 20.5 121.9" style="enable-background:new 0 0 20.5 121.9;" xml:space="preserve">
<style type="text/css">
	.st0{clip-path:url(#SVGID_2_);fill:#FFC94E;}
</style>
<g>
	<defs>
		
			<rect id="SVGID_1_" x="-52.7" y="48.8" transform="matrix(3.419741e-03 -1 1 3.419741e-03 -48.6437 68.8674)" width="126" height="20"/>
	</defs>
	<clipPath id="SVGID_2_">
		<use xlink:href="#SVGID_1_"  style="overflow:visible;"/>
	</clipPath>
	<path class="st0" d="M7.9,105l-7.5,7.4C0.2,112.6,0,113,0,113.3l0,7.2c0,1.1,1.4,1.7,2.2,0.9l7.4-7.3l0,3l1,0l0-3l7.3,7.4
		c0.8,0.8,2.2,0.2,2.2-0.9l0-7.2c0-0.3-0.1-0.7-0.4-0.9l-7.4-7.5c-0.5-0.5-1.2-0.5-1.7-0.1l0-5.7l7.3,7.4c0.8,0.8,2.2,0.2,2.2-0.9
		l0-7.2c0-0.3-0.1-0.7-0.4-0.9l-7.4-7.5c-0.5-0.5-1.2-0.5-1.7-0.1l0-5.7l7.3,7.4c0.8,0.8,2.2,0.2,2.2-0.9l0-7.2
		c0-0.3-0.1-0.7-0.4-0.9l-7.4-7.5c-0.5-0.5-1.2-0.5-1.7-0.1l0-5.7l7.3,7.4c0.8,0.8,2.2,0.2,2.2-0.9l0-7.2c0-0.3-0.1-0.7-0.4-0.9
		l-7.4-7.5c-0.5-0.5-1.2-0.5-1.7-0.1l0-5.7l7.3,7.4c0.8,0.8,2.2,0.2,2.2-0.9l0-7.2c0-0.3-0.1-0.7-0.4-0.9l-7.4-7.5
		c-0.5-0.5-1.2-0.5-1.7-0.1l0-5.7l7.3,7.4c0.8,0.8,2.2,0.2,2.2-0.9l0-7.2c0-0.3-0.1-0.7-0.4-0.9l-7.4-7.5c-0.5-0.5-1.2-0.5-1.7-0.1
		l0-5.7l7.3,7.4c0.8,0.8,2.2,0.2,2.2-0.9l0-7.2c0-0.3-0.1-0.7-0.4-0.9l-7.4-7.5c-0.5-0.5-1.2-0.5-1.7-0.1l0-5.7l7.3,7.4
		c0.8,0.8,2.2,0.2,2.2-0.9l0-7.2c0-0.3-0.1-0.7-0.4-0.9l-7.4-7.5c-0.5-0.5-1.2-0.5-1.7-0.1l0-0.6c-0.2,0-0.3,0-0.5,0
		c-0.2,0-0.3,0-0.5,0l0,0.6C9.5,0.3,8.7,0.2,8.2,0.7L0.8,8.1C0.5,8.4,0.4,8.7,0.4,9l0,7.2c0,1.1,1.4,1.7,2.2,0.9l7.4-7.3l0,5.7
		c-0.5-0.4-1.2-0.4-1.7,0.1L0.7,23c-0.2,0.2-0.4,0.6-0.4,0.9l0,7.2c0,1.1,1.4,1.7,2.2,0.9l7.4-7.3l0,5.7C9.4,30,8.6,30,8.1,30.5
		l-7.5,7.4c-0.2,0.2-0.4,0.6-0.4,0.9l0,7.2c0,1.1,1.4,1.7,2.2,0.9l7.4-7.3l0,5.7c-0.5-0.4-1.2-0.4-1.7,0.1l-7.5,7.4
		c-0.2,0.2-0.4,0.6-0.4,0.9l0,7.2c0,1.1,1.4,1.7,2.2,0.9l7.4-7.3l0,5.7c-0.5-0.4-1.2-0.4-1.7,0.1l-7.5,7.4c-0.2,0.2-0.4,0.6-0.4,0.9
		l0,7.2c0,1.1,1.4,1.7,2.2,0.9l7.4-7.3l0,5.7c-0.5-0.4-1.2-0.4-1.7,0.1l-7.5,7.4c-0.2,0.2-0.4,0.6-0.4,0.9l0,7.2
		c0,1.1,1.4,1.7,2.2,0.9l7.4-7.3l0,5.7c-0.5-0.4-1.2-0.4-1.7,0.1l-7.5,7.4c-0.2,0.2-0.4,0.6-0.4,0.9l0,7.2c0,1.1,1.4,1.7,2.2,0.9
		l7.4-7.3l0,5.7C9.1,104.5,8.4,104.5,7.9,105z"/>
</g>
</svg>
