<svg id="Layer_1" data-name="Layer 1" xmlns="http://www.w3.org/2000/svg" viewBox="0 0 84 84"><title>EFT_icons</title><path d="M80.48,70.32H70.39c-2.78-4.88-6.11-10-13.31-10H53.77a14.45,14.45,0,0,0-10.4-6.64v-5l9.3-5.37,4.5,1.2a11.72,11.72,0,0,0,14.4-8.31L73,31a1.84,1.84,0,0,0-1.3-2.26l-5.23-1.4A11.73,11.73,0,0,0,52,35.66l-1.2,4.49-7.46,4.31V34.63l5.14-5.14a16.54,16.54,0,0,0,0-23.4L42.83.41a1.85,1.85,0,0,0-2.61,0L34.54,6.09a16.56,16.56,0,0,0,0,23.4l5.14,5.14v9.83l-7.45-4.31L31,35.66a11.72,11.72,0,0,0-14.4-8.31l-5.23,1.4A1.84,1.84,0,0,0,10.08,31l1.4,5.23A11.79,11.79,0,0,0,22.84,45h0a11.73,11.73,0,0,0,3.05-.41l4.49-1.2,9.3,5.37v5a14.48,14.48,0,0,0-10.4,6.64H26c-7.2,0-10.54,5.13-13.31,10H2.57A1.84,1.84,0,0,0,.73,72.16V82a1.84,1.84,0,0,0,1.84,1.85H80.48A1.85,1.85,0,0,0,82.33,82V72.16A1.84,1.84,0,0,0,80.48,70.32ZM55.6,36.62a8.07,8.07,0,0,1,7.79-6,8.28,8.28,0,0,1,2.09.28l3.45.92L68,35.28a8.08,8.08,0,0,1-7.79,6,8.3,8.3,0,0,1-2.1-.28l-3.45-.92ZM24.93,41a8.22,8.22,0,0,1-2.09.28h0a8.08,8.08,0,0,1-7.79-6l-.92-3.45,3.44-.92a8.36,8.36,0,0,1,2.1-.28,8.08,8.08,0,0,1,7.79,6l.92,3.45ZM37.15,26.88a12.87,12.87,0,0,1,0-18.18l4.38-4.38L45.9,8.7a12.84,12.84,0,0,1,0,18.18l-2.53,2.53V17.79a1.85,1.85,0,0,0-3.69,0V29.41ZM78.64,80.16H4.42V74h9.32a1.85,1.85,0,0,0,1.61-.94C18.53,67.42,20.84,64,26,64h4.37A1.84,1.84,0,0,0,32,63a10.79,10.79,0,0,1,19.1,0,1.84,1.84,0,0,0,1.63,1h4.37c5.14,0,7.44,3.42,10.63,9.07a1.83,1.83,0,0,0,1.6.94h9.33Z"/><path d="M41.53,65a3.69,3.69,0,1,0,3.69,3.69A3.69,3.69,0,0,0,41.53,65Z"/></svg>