<svg id="Layer_1" data-name="Layer 1" xmlns="http://www.w3.org/2000/svg" viewBox="0 0 84 84"><title>EFT_icons</title><path d="M51.94,54.78a11.64,11.64,0,0,0-.87-4.47A11.9,11.9,0,1,0,40,31a11.88,11.88,0,0,0-18.33,0,11.9,11.9,0,1,0-11,19.34,11.91,11.91,0,0,0,9.16,16.23,11.91,11.91,0,1,0,22.07,0A11.92,11.92,0,0,0,51.94,54.78ZM39,62.92a1.84,1.84,0,0,0-1.68,3A8.09,8.09,0,0,1,39.09,71a8.21,8.21,0,0,1-16.42,0,8.14,8.14,0,0,1,1.79-5.12,1.84,1.84,0,0,0-1.44-3l-.24,0a8.86,8.86,0,0,1-1.07.08,8.23,8.23,0,0,1-8.21-8.22,8.09,8.09,0,0,1,1.8-5.11,1.85,1.85,0,0,0-1.68-3,7.4,7.4,0,0,1-1.07.08A8.21,8.21,0,1,1,20,35.18a1.85,1.85,0,0,0,3.37,0,8.2,8.2,0,0,1,15,0,1.84,1.84,0,0,0,3.36,0A8.21,8.21,0,1,1,49.2,46.76a7.4,7.4,0,0,1-1.07-.08,1.85,1.85,0,0,0-1.68,3,8.09,8.09,0,0,1,1.8,5.11A8.22,8.22,0,0,1,40,63,9.16,9.16,0,0,1,39,62.92Z"/><path d="M19.9,18.31A1.85,1.85,0,0,0,21.58,15,5.12,5.12,0,1,1,29,10.46v9.83a1.85,1.85,0,1,0,3.69,0V10.46A8.81,8.81,0,1,0,19.9,18.31Z"/><path d="M81.66,35.44c-6.49-6-10.76-9.89-12.27-11.27V12l2.12-1.57a1.82,1.82,0,0,0,.75-1.48V3.33a1.85,1.85,0,0,0-1.85-1.85H53.71a1.85,1.85,0,0,0-1.85,1.85V8.91a1.82,1.82,0,0,0,.75,1.48L54.73,12v9.9a1.85,1.85,0,0,0,3.69,0V11a1.82,1.82,0,0,0-.75-1.48L55.55,8V5.17h13V8L66.44,9.55A1.84,1.84,0,0,0,65.7,11V25a1.87,1.87,0,0,0,.6,1.37s4.48,4.06,12.26,11.24V75.06a4.34,4.34,0,0,1-4.33,4.34H46.6a1.85,1.85,0,1,0,0,3.69H74.23a8,8,0,0,0,8-8V36.8A1.84,1.84,0,0,0,81.66,35.44Z"/><path d="M50.68,68.15A1.84,1.84,0,0,0,52.52,70H70.28a1.85,1.85,0,0,0,1.85-1.85V47.55a1.85,1.85,0,0,0-3.69,0V66.31H52.52A1.84,1.84,0,0,0,50.68,68.15Z"/></svg>