<svg id="Layer_1" data-name="Layer 1" xmlns="http://www.w3.org/2000/svg" viewBox="0 0 84 84"><title>EFT_icons</title><path d="M40.14,79.11H4V17.38H46.92a1.85,1.85,0,1,0,0-3.69H4V4.89H59.35V15A1.85,1.85,0,0,0,63,15V3A1.84,1.84,0,0,0,61.19,1.2h-59A1.84,1.84,0,0,0,.35,3V81A1.84,1.84,0,0,0,2.19,82.8h38a1.85,1.85,0,0,0,0-3.69Z"/><path d="M20.63,31.12H35a1.85,1.85,0,0,0,0-3.7H20.63a8,8,0,0,0-8,8V61.18a8,8,0,0,0,8,8h7.53a1.85,1.85,0,1,0,0-3.69H20.63a4.34,4.34,0,0,1-4.33-4.34V35.45A4.33,4.33,0,0,1,20.63,31.12Z"/><path d="M79.35,39.35l0,0L78.4,38A25.15,25.15,0,0,0,58.2,27.74a26.25,26.25,0,0,0-3,.17A25.15,25.15,0,0,0,38,38h0l-1,1.35,0,0a24.81,24.81,0,0,0-4,13.48c0,10.43,13,19,20.81,23.14a9,9,0,0,0,8.55,0c7.77-4.17,20.81-12.71,20.81-23.14A24.8,24.8,0,0,0,79.35,39.35Zm-37.12-1c.12-.13.24-.27.37-.4s.32-.33.48-.49l.38-.37L44,36.6l.36-.32c.22-.18.44-.36.67-.53l.27-.21c.32-.24.65-.47,1-.69l.29-.18.73-.46.41-.22.65-.36.45-.22.63-.3.48-.2.64-.26.5-.18c.21-.07.42-.15.64-.21l.51-.16.66-.18.51-.13.68-.14.5-.1.73-.1.48-.07.81-.07.4,0c.41,0,.81,0,1.22,0s.82,0,1.23,0l.4,0,.81.07.48.07.72.1.51.1.68.14.51.13.66.18.51.16c.22.06.43.14.65.21l.49.18.64.26.47.2.65.31.44.21.67.36.39.22.79.49.23.14,1,.7.2.16.74.59.32.28c.2.17.4.34.59.52l.34.33.52.53c.12.12.23.25.34.37l.29.33c-3.92,2.47-9.84,3.91-16.26,3.91S45.87,41.12,42,38.65C42,38.55,42.13,38.44,42.23,38.34Zm18.6,34.55a5.55,5.55,0,0,1-5.25,0c-5.7-3.06-19-11.13-19-20.06a21.41,21.41,0,0,1,3.24-11.37c4.5,2.9,11.18,4.6,18.34,4.6s13.85-1.7,18.35-4.6a21.32,21.32,0,0,1,3.24,11.37C79.79,61.76,66.53,69.83,60.83,72.89Z"/><path d="M50.11,61.64c-3.45-2.8-5.42-5.71-5.87-8.66A21.39,21.39,0,0,1,44,50a1.75,1.75,0,1,0-3.5,0,23.75,23.75,0,0,0,.29,3.46c.58,3.83,3,7.49,7.13,10.85a1.75,1.75,0,0,0,2.2-2.72Z"/></svg>