<svg id="Layer_1" data-name="Layer 1" xmlns="http://www.w3.org/2000/svg" viewBox="0 0 84 84"><title>EFT_icons</title><path d="M47.36,61.35a7.31,7.31,0,1,0,7.31,7.31A7.32,7.32,0,0,0,47.36,61.35Zm0,10.93A3.62,3.62,0,1,1,51,68.66,3.63,3.63,0,0,1,47.36,72.28Z"/><path d="M48.33,40.38h9.85a1.85,1.85,0,0,0,0-3.69H48.33a1.85,1.85,0,0,0,0,3.69Z"/><path d="M48.33,48.58h9.85a1.85,1.85,0,0,0,0-3.69H48.33a1.85,1.85,0,0,0,0,3.69Z"/><path d="M82.22,66.81l.78,1V48.73A20.76,20.76,0,0,0,62.26,28H59.81V23.1l3.55-3.51a1.86,1.86,0,0,0,.55-1.32v-5.2a1.85,1.85,0,0,0-1.85-1.85H44.45a1.85,1.85,0,0,0-1.85,1.85v5.2a1.86,1.86,0,0,0,.55,1.32L46.7,23.1V28H40l-5.08-4.47a1.88,1.88,0,0,0-1.22-.45H15.54a1.84,1.84,0,0,0-1.84,1.84V36.69H2.49A1.84,1.84,0,0,0,.65,38.53v5.91a1.85,1.85,0,0,0,1.14,1.71L13.7,51.08V68.66a1.84,1.84,0,0,0,1.84,1.84H32.79a14.69,14.69,0,0,0,29.14,0H82.22a1.85,1.85,0,1,0,0-3.69ZM49.85,21,46.29,17.5V14.91H60.22V17.5L56.66,21a1.84,1.84,0,0,0-.55,1.31V28H50.4V22.33A1.84,1.84,0,0,0,49.85,21ZM4.34,40.38H30.72V51H23.08L4.34,43.21ZM17.39,52.6,22,54.52a1.86,1.86,0,0,0,.7.14h9.86a1.84,1.84,0,0,0,1.84-1.85V38.53a1.84,1.84,0,0,0-1.84-1.84H17.39V26.77H33l5.08,4.46a1.87,1.87,0,0,0,1.22.46H62.26a17.06,17.06,0,0,1,17.05,17V66.81H61.93a14.69,14.69,0,0,0-29.14,0H17.39Zm30,27.06a11,11,0,1,1,11-11A11,11,0,0,1,47.36,79.66Z"/></svg>