<svg id="Layer_1" data-name="Layer 1" xmlns="http://www.w3.org/2000/svg" viewBox="0 0 84 84"><title>EFT_icons</title><path d="M24.2,37.11c0-4.15-5.9-10.94-7.08-12.26a1.85,1.85,0,0,0-2.75,0C13.19,26.17,7.28,33,7.28,37.11a8.46,8.46,0,1,0,16.92,0ZM11,37.11c0-1.68,2.47-5.36,4.77-8.18,2.3,2.82,4.77,6.5,4.77,8.18a4.77,4.77,0,0,1-9.54,0Z"/><path d="M50.64,37.11c0-4.15-5.91-10.94-7.09-12.26a1.85,1.85,0,0,0-2.75,0c-1.18,1.32-7.09,8.11-7.09,12.26a8.47,8.47,0,0,0,16.93,0Zm-13.23,0c0-1.68,2.47-5.36,4.77-8.18,2.29,2.82,4.77,6.5,4.77,8.18a4.77,4.77,0,1,1-9.54,0Z"/><path d="M77.07,37.11c0-4.15-5.9-10.94-7.09-12.26a1.84,1.84,0,0,0-2.74,0c-1.19,1.32-7.09,8.11-7.09,12.26a8.46,8.46,0,1,0,16.92,0Zm-13.23,0c0-1.68,2.47-5.36,4.77-8.18,2.3,2.82,4.77,6.5,4.77,8.18a4.77,4.77,0,0,1-9.54,0Z"/><path d="M3.22,5.17H81.13a1.85,1.85,0,1,0,0-3.69H3.22a1.85,1.85,0,0,0,0,3.69Z"/><path d="M81.13,10.51H3.22a1.85,1.85,0,0,0,0,3.69H13.9v3.68a1.85,1.85,0,1,0,3.69,0V14.2H40.33v3.68a1.85,1.85,0,1,0,3.69,0V14.2H66.76v3.68a1.85,1.85,0,1,0,3.69,0V14.2H81.13a1.85,1.85,0,1,0,0-3.69Z"/><path d="M81.13,53.7H3.22a1.84,1.84,0,0,0-1.84,1.84v25.7a1.84,1.84,0,0,0,1.84,1.85H81.13A1.85,1.85,0,0,0,83,81.24V55.54A1.85,1.85,0,0,0,81.13,53.7ZM79.29,79.4H5.07v-22H79.29Z"/><path d="M13.07,66.26h3.87a1.85,1.85,0,0,0,0-3.69H13.07a1.85,1.85,0,0,0,0,3.69Z"/><path d="M31.19,66.26h3.86a1.85,1.85,0,1,0,0-3.69H31.19a1.85,1.85,0,1,0,0,3.69Z"/><path d="M49.3,66.26h3.87a1.85,1.85,0,0,0,0-3.69H49.3a1.85,1.85,0,1,0,0,3.69Z"/><path d="M67.41,66.26h3.87a1.85,1.85,0,0,0,0-3.69H67.41a1.85,1.85,0,0,0,0,3.69Z"/><path d="M22.13,74.22H26a1.85,1.85,0,0,0,0-3.69H22.13a1.85,1.85,0,1,0,0,3.69Z"/><path d="M40.24,74.22h3.87a1.85,1.85,0,0,0,0-3.69H40.24a1.85,1.85,0,0,0,0,3.69Z"/><path d="M58.36,74.22h3.86a1.85,1.85,0,1,0,0-3.69H58.36a1.85,1.85,0,1,0,0,3.69Z"/></svg>