<svg id="Layer_1" data-name="Layer 1" xmlns="http://www.w3.org/2000/svg" viewBox="0 0 84 84"><title>EFT_icons</title><path d="M34.55,50.05l9.3-5.37,4.5,1.2a11.72,11.72,0,0,0,14.4-8.31l1.4-5.23a1.84,1.84,0,0,0-1.3-2.26l-5.23-1.41a12.16,12.16,0,0,0-3-.4A11.79,11.79,0,0,0,43.21,37L42,41.48l-7.46,4.31V36l5.14-5.14a16.57,16.57,0,0,0,0-23.4L34,1.74a1.81,1.81,0,0,0-1.3-.54,1.85,1.85,0,0,0-1.31.54L25.72,7.42a16.56,16.56,0,0,0,0,23.4L30.86,36v9.83l-7.45-4.31L22.2,37a11.77,11.77,0,0,0-11.35-8.72,12.1,12.1,0,0,0-3,.4L2.57,30.08a1.84,1.84,0,0,0-1.31,2.26l1.4,5.23A11.79,11.79,0,0,0,14,46.29h0a11.73,11.73,0,0,0,3.05-.41l4.49-1.2,9.3,5.37V68.61L23.41,64.3,22.2,59.81a11.77,11.77,0,0,0-11.35-8.72,12.1,12.1,0,0,0-3,.4L2.57,52.9a1.84,1.84,0,0,0-1.31,2.26l1.4,5.23A11.79,11.79,0,0,0,14,69.11h0a11.73,11.73,0,0,0,3.05-.41l4.49-1.2,9.3,5.37v6.24H17a1.85,1.85,0,0,0,0,3.69H48.41a1.85,1.85,0,1,0,0-3.69H34.55V72.87l9.3-5.37,4.5,1.2a11.72,11.72,0,0,0,14.4-8.31l1.4-5.23a1.84,1.84,0,0,0-1.3-2.26l-5.23-1.41a12.16,12.16,0,0,0-3-.4,11.79,11.79,0,0,0-11.36,8.72L42,64.3l-7.46,4.31ZM46.78,38a8.07,8.07,0,0,1,7.79-6,7.85,7.85,0,0,1,2.09.28l3.45.92-.92,3.45a8.08,8.08,0,0,1-7.79,6,8.3,8.3,0,0,1-2.1-.28l-3.45-.93ZM16.11,42.32A8.28,8.28,0,0,1,14,42.6h0a8.08,8.08,0,0,1-7.79-6L5.3,33.16l3.45-.92a7.92,7.92,0,0,1,2.1-.28,8.08,8.08,0,0,1,7.79,6l.92,3.44Zm0,22.82a8.22,8.22,0,0,1-2.09.28h0a8.08,8.08,0,0,1-7.79-6L5.3,56l3.45-.92a7.92,7.92,0,0,1,2.1-.28,8.08,8.08,0,0,1,7.79,6l.92,3.44Zm30.67-4.37a8.07,8.07,0,0,1,7.79-6,7.85,7.85,0,0,1,2.09.28l3.45.92-.92,3.45a8.08,8.08,0,0,1-7.79,6,8.3,8.3,0,0,1-2.1-.28l-3.45-.93ZM28.33,28.21a12.87,12.87,0,0,1,0-18.18l4.38-4.38L37.08,10a12.87,12.87,0,0,1,0,18.18l-2.53,2.53V19.12a1.85,1.85,0,1,0-3.69,0V30.74Z"/><path d="M67.94,11.4a1.83,1.83,0,0,0,1.3-.54L72.6,7.5V32a1.85,1.85,0,0,0,3.69,0V7.5l3.36,3.36a1.85,1.85,0,1,0,2.61-2.61L75.75,1.74a1.81,1.81,0,0,0-1.3-.54,1.85,1.85,0,0,0-1.31.54L66.63,8.25a1.85,1.85,0,0,0,1.31,3.15Z"/><path d="M79.65,73.14,76.29,76.5V52a1.85,1.85,0,0,0-3.69,0V76.5l-3.36-3.36a1.85,1.85,0,0,0-2.61,2.61l6.51,6.51a1.86,1.86,0,0,0,1.31.54,1.83,1.83,0,0,0,1.3-.54l6.51-6.51a1.85,1.85,0,1,0-2.61-2.61Z"/><path d="M70.76,42a3.69,3.69,0,1,0,3.69-3.69A3.69,3.69,0,0,0,70.76,42Z"/></svg>