<svg id="Layer_1" data-name="Layer 1" xmlns="http://www.w3.org/2000/svg" viewBox="0 0 84 84"><title>EFT_icons</title><path d="M34.35,18.41a1.85,1.85,0,1,0,0-3.69,12,12,0,0,0-12,12,1.85,1.85,0,0,0,3.69,0A8.31,8.31,0,0,1,34.35,18.41Z"/><path d="M79.72,26A1.85,1.85,0,0,0,78,24.87H69.74A20.16,20.16,0,0,0,44.39,7.22,7.08,7.08,0,0,1,46.77,4.1a1.84,1.84,0,1,0-2.18-3,10.83,10.83,0,0,0-4.13,6.34,19.91,19.91,0,0,0-6.11-1,20.21,20.21,0,0,0-20.1,18.35H6A1.84,1.84,0,0,0,4.27,26,40.81,40.81,0,1,0,82.8,41.57,40.58,40.58,0,0,0,79.72,26ZM34.35,10.21a16.41,16.41,0,0,1,6.87,1.5,1.8,1.8,0,0,0,1.54,0,16.51,16.51,0,0,1,23.38,15c0,9.41-11.56,22.88-19.63,22.88h-9c-8.07,0-19.63-13.47-19.63-22.88A16.52,16.52,0,0,1,34.35,10.21Zm35.46,55.9V47a1.85,1.85,0,0,0-3.69,0V69.75a37.13,37.13,0,0,1-9.3,5.84V57.66a1.85,1.85,0,0,0-3.69,0V77a36.57,36.57,0,0,1-9.29,1.67v-19a1.85,1.85,0,1,0-3.69,0v19A36.72,36.72,0,0,1,30.85,77V57.66a1.85,1.85,0,0,0-3.69,0V75.59a37.25,37.25,0,0,1-9.29-5.84V47a1.85,1.85,0,0,0-3.69,0v19.1A37.08,37.08,0,0,1,7.23,28.56h7C15.56,39.71,28,53.29,37.48,53.29h9c9.5,0,21.91-13.58,23.2-24.73h7.05a37.15,37.15,0,0,1-7,37.55Z"/></svg>