<svg id="Layer_1" data-name="Layer 1" xmlns="http://www.w3.org/2000/svg" viewBox="0 0 84 84"><title>EFT_icons</title><path d="M35,61.52H19.15a1.85,1.85,0,0,0,0,3.69H35a1.85,1.85,0,0,0,0-3.69Z"/><path d="M29.69,69.72H24.42a1.85,1.85,0,1,0,0,3.69h5.27a1.85,1.85,0,1,0,0-3.69Z"/><path d="M36.19,32V12.78a5.94,5.94,0,0,0-1.4-11.72H19.32a5.94,5.94,0,0,0-1.4,11.72V32a26.14,26.14,0,1,0,18.27,0ZM20.32,35.11a1.84,1.84,0,0,0,1.29-1.76V11.1a1.84,1.84,0,0,0-1.84-1.84h-.45a2.26,2.26,0,0,1,0-4.51H34.79a2.26,2.26,0,0,1,0,4.51h-.45A1.84,1.84,0,0,0,32.5,11.1V33.35a1.84,1.84,0,0,0,1.29,1.76A22.32,22.32,0,0,1,48,48.45a10.22,10.22,0,0,0-4.95,2.95c-1.36,1.26-2.35,2.17-4.5,2.17s-3.14-.91-4.5-2.17c-1.52-1.41-3.41-3.17-7-3.17S21.56,50,20,51.4c-1.36,1.26-2.34,2.17-4.49,2.17s-3.14-.91-4.5-2.17a10.22,10.22,0,0,0-5-2.95A22.3,22.3,0,0,1,20.32,35.11ZM27.05,79A22.47,22.47,0,0,1,4.61,56.53,23.35,23.35,0,0,1,5.06,52a6.58,6.58,0,0,1,3.48,2.1c1.52,1.41,3.41,3.16,7,3.16s5.49-1.75,7-3.16c1.36-1.26,2.34-2.18,4.49-2.18s3.14.92,4.5,2.18c1.52,1.41,3.41,3.16,7,3.16s5.49-1.75,7-3.16A6.51,6.51,0,0,1,49.05,52a23.35,23.35,0,0,1,.45,4.53A22.47,22.47,0,0,1,27.05,79Z"/><path d="M71.55,15.29H68.29V12a1.85,1.85,0,1,0-3.69,0v3.26H61.34a1.85,1.85,0,0,0,0,3.69H64.6v3.26a1.85,1.85,0,0,0,3.69,0V19h3.26a1.85,1.85,0,1,0,0-3.69Z"/><path d="M66.45,1.06A16.08,16.08,0,1,0,82.52,17.13,16.09,16.09,0,0,0,66.45,1.06Zm0,28.46A12.39,12.39,0,1,1,78.83,17.13,12.41,12.41,0,0,1,66.45,29.52Z"/><path d="M66.45,40a3.7,3.7,0,1,0,3.69,3.69A3.69,3.69,0,0,0,66.45,40Z"/><path d="M66.45,54a3.69,3.69,0,1,0,3.69,3.69A3.69,3.69,0,0,0,66.45,54Z"/><path d="M66.45,68a3.69,3.69,0,1,0,3.69,3.69A3.69,3.69,0,0,0,66.45,68Z"/></svg>