<svg id="Layer_1" data-name="Layer 1" xmlns="http://www.w3.org/2000/svg" viewBox="0 0 84 84"><title>EFT_icons</title><path d="M20.45,65.22H16.68a1.85,1.85,0,1,0,0,3.69h3.77a1.85,1.85,0,0,0,0-3.69Z"/><path d="M43.7,65.22H39.93a1.85,1.85,0,1,0,0,3.69H43.7a1.85,1.85,0,0,0,0-3.69Z"/><path d="M67,65.22H63.18a1.85,1.85,0,1,0,0,3.69H67a1.85,1.85,0,0,0,0-3.69Z"/><path d="M80.77,55.7H72.65v-24a30.84,30.84,0,1,0-61.67,0v24H2.86A1.85,1.85,0,0,0,1,57.55V80.67a1.84,1.84,0,0,0,1.85,1.84,12.44,12.44,0,0,0,7.48-2.33,8.75,8.75,0,0,1,5.5-1.77,8.76,8.76,0,0,1,5.51,1.77,12.42,12.42,0,0,0,7.48,2.33,12.44,12.44,0,0,0,7.48-2.33,8.75,8.75,0,0,1,5.5-1.77,8.76,8.76,0,0,1,5.51,1.77,13.17,13.17,0,0,0,15,0,9.45,9.45,0,0,1,11,0,12.42,12.42,0,0,0,7.48,2.33,1.84,1.84,0,0,0,1.84-1.84V57.55A1.84,1.84,0,0,0,80.77,55.7Zm-66.1-24a27.15,27.15,0,1,1,54.29,0v24H43.66V49.46l5.14-5.14a16.57,16.57,0,0,0,0-23.4l-5.68-5.68a1.85,1.85,0,0,0-2.61,0l-5.68,5.68a16.57,16.57,0,0,0,0,23.4L40,49.46V55.7H14.67Zm27.14-1A1.84,1.84,0,0,0,40,32.62V44.24l-2.53-2.53a12.87,12.87,0,0,1,0-18.18l4.37-4.38,4.38,4.38a12.87,12.87,0,0,1,0,18.18l-2.53,2.53V32.62A1.85,1.85,0,0,0,41.81,30.77Zm37.11,47.9a9.45,9.45,0,0,1-3.66-1.61,13.11,13.11,0,0,0-15,0,9.51,9.51,0,0,1-11,0,12.32,12.32,0,0,0-7.48-2.34,12.31,12.31,0,0,0-7.47,2.34,8.84,8.84,0,0,1-5.51,1.76,8.84,8.84,0,0,1-5.51-1.76,12.35,12.35,0,0,0-7.48-2.34,12.31,12.31,0,0,0-7.47,2.34A9.49,9.49,0,0,1,4.7,78.67V59.39H78.92Z"/></svg>