<?xml version="1.0" encoding="utf-8"?>
<!-- Generator: Adobe Illustrator 21.1.0, SVG Export Plug-In . SVG Version: 6.00 Build 0)  -->
<svg version="1.1" id="Слой_1" xmlns="http://www.w3.org/2000/svg" xmlns:xlink="http://www.w3.org/1999/xlink" x="0px" y="0px"
	 viewBox="0 0 135.4 24.4" style="enable-background:new 0 0 135.4 24.4;" xml:space="preserve">
<style type="text/css">
	.st0{clip-path:url(#SVGID_2_);fill:#45AC34;}
</style>
<g>
	<defs>
		<rect id="SVGID_1_" y="0" width="135.4" height="24.4"/>
	</defs>
	<clipPath id="SVGID_2_">
		<use xlink:href="#SVGID_1_"  style="overflow:visible;"/>
	</clipPath>
	<path class="st0" d="M127.7,10.2c0,1.4-0.8,2.1-2.7,2.1c-0.2,0-1.5,0-1.7,0V8c0.3,0,1.4-0.1,1.7-0.1c1.8,0,2.7,0.6,2.7,2.1V10.2
		 M98.4,17.8c1.8,0,2.6-1.1,2.6-3.6v-2.5c0-2.5-0.8-3.6-2.6-3.6c-1.8,0-2.6,1.1-2.6,3.6v2.5C95.8,16.7,96.7,17.8,98.4,17.8
		 M87.4,10.1V9.9c0-1.3-1-1.9-2.8-1.9C84.4,8,83.3,8,83,8v4.1c0.2,0,1.3,0,1.5,0C86.8,12.1,87.4,11.6,87.4,10.1 M0,4.2
		c0-1.4,0-2.7,0-3.8C0,0.2,0.2,0,0.5,0c0.1,0,0.3,0.1,0.3,0.2C1.5,1,2.5,1.5,3.6,1.5h3.6c2.2,0,4.1,0.9,5.4,2.4
		C14,2.5,15.9,1.5,18,1.5h110.1c4,0,7.2,3.2,7.2,7.2v8.4c0,4-3.2,7.2-7.2,7.2l-108.3,0c-1,0-1.8-0.8-1.8-1.8l0-10.3l0.9,0
		c4.5,0,8.1-3.7,8.1-8.2c0-0.1,0-0.1,0-0.2c0-0.2-0.2-0.5-0.5-0.5c-0.1,0-0.3,0.1-0.3,0.2l0,0c-0.7,0.8-1.7,1.3-2.8,1.3h-5.4
		c-2,0-3.6,1.6-3.6,3.6v13.9c0,1-0.8,1.8-1.8,1.8c-1,0-1.8-0.8-1.8-1.8V12.4H8.1C3.6,12.4,0,8.7,0,4.2 M119.7,20.4
		c0,0.2,0.2,0.4,0.4,0.4h2.7c0.2,0,0.4-0.2,0.4-0.4v-5.1c0.5,0,1.2,0.1,1.7,0.1c3.1,0,6.3-1.2,6.3-5.1V10c0-4-3.1-5.1-6.3-5.1
		c-1.5,0-3.2,0.1-4.3,0.3c-0.7,0.1-0.9,0.3-0.9,1V20.4z M105.9,14.9c0,4.8,2.7,6.1,6.1,6.1c3.4,0,6.1-1.3,6.1-6.1V5.5
		c0-0.2-0.2-0.4-0.4-0.4h-2.7c-0.2,0-0.4,0.2-0.4,0.4v9.4c0,2.2-0.6,3.1-2.5,3.1c-1.9,0-2.5-0.9-2.5-3.1V5.5c0-0.2-0.2-0.4-0.4-0.4
		h-2.8c-0.2,0-0.4,0.2-0.4,0.4V14.9z M92.2,14.2c0,4.9,2.8,6.8,6.2,6.8c3.5,0,6.2-1.9,6.2-6.8v-2.5c0-4.9-2.8-6.8-6.2-6.8
		c-3.5,0-6.2,1.9-6.2,6.8V14.2z M79.4,20.4c0,0.2,0.2,0.4,0.4,0.4h2.7c0.2,0,0.4-0.2,0.4-0.4V15c0.4,0,1.1,0,1.5,0l0.2,0l2.8,5.3
		c0.1,0.2,0.2,0.4,0.4,0.4h3.2c0.2,0,0.3-0.1,0.3-0.3c0-0.1,0-0.1-0.1-0.2l-3.2-6c1.5-0.6,2.7-2,2.7-4.2V9.9c0-3.7-2.8-4.9-6.4-4.9
		c-1.5,0-3.3,0.1-4.3,0.3c-0.7,0.1-0.9,0.3-0.9,1V20.4z M66.7,14.3c0,5.3,3.6,6.7,6,6.7c2.1,0,3.6-0.2,4.7-0.4
		c0.3-0.1,0.4-0.2,0.4-0.5V13c0-0.2-0.2-0.4-0.4-0.4h-2.7c-0.2,0-0.4,0.2-0.4,0.4v4.9c-0.5,0-1,0.1-1.6,0.1c-1,0-2.4-0.7-2.4-3.6
		v-2.6c0-2.8,1.1-3.6,2.8-3.6c1.8,0,3.4,0.1,4.4,0.2h0.1c0.2,0,0.3,0,0.3-0.3V5.7c0-0.2-0.1-0.3-0.4-0.3c-0.8-0.2-2.3-0.5-4.4-0.5
		c-3.1,0-6.4,1.4-6.4,6.7V14.3z M51.2,7.7c0,0.2,0.2,0.4,0.4,0.4h3.4v12.3c0,0.2,0.2,0.4,0.4,0.4h2.8c0.2,0,0.4-0.2,0.4-0.4V8.1h3.4
		c0.2,0,0.4-0.2,0.4-0.4V5.5c0-0.2-0.2-0.4-0.4-0.4H51.7c-0.2,0-0.4,0.2-0.4,0.4V7.7z M40.3,20.4c0,0.2,0.2,0.4,0.4,0.4h2.7
		c0.2,0,0.4-0.2,0.4-0.4v-6.2h5.5c0.2,0,0.4-0.2,0.4-0.4v-2c0-0.2-0.2-0.4-0.4-0.4h-5.5V9.5c0-1.1,0.4-1.4,1.4-1.4h4.3
		c0.2,0,0.4-0.2,0.4-0.4v-2c0-0.3-0.1-0.4-0.4-0.4c-0.7-0.1-1.8-0.3-4.1-0.3c-2.7,0-5.2,0.7-5.2,4.5V20.4z M28.9,16.4
		c0,3.8,2.4,4.5,5.1,4.5c2.3,0,3.4-0.2,4.1-0.3c0.3,0,0.4-0.2,0.4-0.4v-2c0-0.2-0.2-0.4-0.4-0.4h-4.3c-1,0-1.4-0.3-1.4-1.4v-2.2h5.5
		c0.2,0,0.4-0.2,0.4-0.4v-2c0-0.2-0.2-0.4-0.4-0.4h-5.5V9.4c0-1.1,0.4-1.4,1.4-1.4h4.3c0.2,0,0.4-0.2,0.4-0.4v-2
		c0-0.3-0.1-0.4-0.4-0.4c-0.7-0.1-1.8-0.3-4.1-0.3c-2.7,0-5.1,0.7-5.1,4.5V16.4z"/>
</g>
</svg>
